<svg width="25" height="25" viewBox="0 0 25 25" fill="none" xmlns="http://www.w3.org/2000/svg">
<path d="M8.48193 14.1523C11.7956 14.1523 14.4819 11.4661 14.4819 8.15234C14.4819 4.83864 11.7956 2.15234 8.48193 2.15234C5.16823 2.15234 2.48193 4.83864 2.48193 8.15234C2.48193 11.4661 5.16823 14.1523 8.48193 14.1523Z" stroke="#EA580C" stroke-width="2" stroke-linecap="round" stroke-linejoin="round"/>
<path d="M18.572 10.5225C19.5173 10.8749 20.3585 11.46 21.0177 12.2237C21.677 12.9873 22.133 13.9049 22.3437 14.8915C22.5544 15.8782 22.5129 16.902 22.223 17.8683C21.9332 18.8346 21.4043 19.7123 20.6854 20.4201C19.9665 21.1279 19.0807 21.6429 18.1099 21.9177C17.1392 22.1924 16.1149 22.218 15.1316 21.9919C14.1484 21.7659 13.2381 21.2956 12.4848 20.6245C11.7315 19.9534 11.1596 19.1032 10.822 18.1525" stroke="#EA580C" stroke-width="2" stroke-linecap="round" stroke-linejoin="round"/>
<path d="M7.48193 6.15234H8.48193V10.1523" stroke="#EA580C" stroke-width="2" stroke-linecap="round" stroke-linejoin="round"/>
<path d="M17.192 14.0322L17.892 14.7422L15.072 17.5622" stroke="#EA580C" stroke-width="2" stroke-linecap="round" stroke-linejoin="round"/>
</svg>
