<?xml version="1.0" encoding="UTF-8"?>
<svg id="Calque_1" data-name="Calque 1" xmlns="http://www.w3.org/2000/svg" viewBox="0 0 241.5 194.59">
  <defs>
    <style>
      .cls-1 {
        fill: #1b1934;
      }

      .cls-2 {
        fill: #f1d469;
      }
    </style>
  </defs>
  <g>
    <g>
      <path class="cls-2" d="M95.57,14.6h-.15L14.73,12.3l54.47,17-7.42,14.15-17.48,33.38,58.76-.08,23.97-.03c37.14-.05,71.37-20.01,89.74-52.3l6.08-10.7-127.28.86Z"/>
      <path class="cls-2" d="M14.73,1.84c.1,0,.2,0,.3,0l80.54,2.29s127.26-.86,127.28-.86c3.71,0,7.14,1.97,9.02,5.17,1.89,3.22,1.92,7.21.07,10.46l-6.08,10.7c-20.17,35.47-58.03,57.53-98.81,57.59l-23.97.03s-58.76.08-58.77.08c-3.66,0-7.05-1.91-8.94-5.04-1.9-3.13-2.02-7.03-.32-10.27l19.08-36.43L11.62,22.28c-4.99-1.56-8.06-6.55-7.2-11.71C5.26,5.53,9.64,1.84,14.73,1.84M14.73,0C8.7,0,3.59,4.32,2.6,10.28c-1.01,6.03,2.63,11.95,8.47,13.77l40.4,12.61-18.06,34.47c-1.99,3.79-1.84,8.42.38,12.08,2.22,3.66,6.25,5.93,10.52,5.93t58.77-.08l23.97-.03c41.44-.06,79.92-22.48,100.42-58.52l6.08-10.7c2.17-3.81,2.13-8.52-.08-12.3-2.2-3.75-6.27-6.08-10.61-6.08t-127.26.86L15.08,0c-.12,0-.23,0-.35,0h0Z"/>
    </g>
    <path class="cls-1" d="M14.73,12.3l80.68,2.3h.15l127.28-.86-6.08,10.7c-18.36,32.29-52.6,52.25-89.74,52.3l-23.97.03-58.76.08,17.48-33.38,7.42-14.15L14.73,12.3M222.85,13.74h0M14.73,3.08c-4.49,0-8.35,3.25-9.09,7.7-.76,4.54,1.95,8.95,6.35,10.32l43.92,13.71-2.29,4.36-17.48,33.38c-1.5,2.86-1.39,6.3.28,9.06,1.67,2.76,4.66,4.44,7.89,4.44h.01l58.76-.08,23.97-.03c19.85-.03,39.4-5.32,56.54-15.31,17.14-9.99,31.39-24.39,41.2-41.65l5.97-10.51c.83-1.39,1.32-3.01,1.32-4.75,0-5.08-4.11-9.2-9.18-9.22,0,0,0,0,0,0,0,0,0,0,0,0-.01,0-.02,0-.03,0-.02,0-.04,0-.06,0l-127.24.86L15,3.08c-.09,0-.18,0-.27,0h0Z"/>
  </g>
  <g>
    <g>
      <path class="cls-1" d="M96.65,117.23h-.16l-83.73-2.38,56.53,17.65-7.7,14.69-18.14,34.64,60.98-.08,24.87-.03c38.54-.05,74.07-20.76,93.13-54.27l6.31-11.1-132.09.89Z"/>
      <path class="cls-1" d="M12.76,104c.1,0,.21,0,.31,0l83.58,2.38s132.06-.89,132.09-.89c3.85,0,7.41,2.04,9.36,5.36,1.96,3.34,1.99,7.48.07,10.85l-6.31,11.1c-20.93,36.81-60.23,59.71-102.55,59.76l-24.88.03s-60.98.08-60.99.08c-3.79,0-7.31-1.98-9.28-5.23-1.97-3.25-2.1-7.29-.33-10.66l19.8-37.81-44.11-13.77c-5.17-1.61-8.36-6.8-7.47-12.15.88-5.24,5.41-9.06,10.7-9.06M12.76,102.08c-6.26,0-11.56,4.48-12.59,10.66-1.05,6.26,2.73,12.4,8.79,14.29l41.92,13.09-18.74,35.78c-2.06,3.94-1.91,8.74.39,12.54,2.3,3.79,6.48,6.15,10.92,6.15t60.99-.08l24.87-.03c43.01-.06,82.94-23.33,104.21-60.73l6.31-11.1c2.25-3.95,2.21-8.84-.09-12.77-2.28-3.89-6.5-6.31-11.01-6.31t-132.07.89l-83.54-2.38c-.12,0-.25,0-.37,0h0Z"/>
    </g>
    <path class="cls-2" d="M12.77,114.85l83.73,2.38h.16l132.09-.89-6.31,11.1c-19.06,33.51-54.59,54.22-93.13,54.27l-24.87.03-60.98.08,18.14-34.64,7.7-14.69-56.53-17.65M228.74,116.34h0M12.76,105.28c-4.66,0-8.66,3.37-9.44,7.99-.79,4.72,2.02,9.29,6.59,10.71l45.58,14.23-2.37,4.53-18.14,34.64c-1.56,2.97-1.44,6.53.29,9.4,1.73,2.86,4.84,4.61,8.19,4.61,0,0,0,0,.01,0l60.98-.08,24.87-.03c20.6-.03,40.89-5.52,58.68-15.89,17.79-10.37,32.57-25.31,42.76-43.22l6.2-10.91c.87-1.44,1.36-3.12,1.36-4.93,0-5.28-4.27-9.56-9.55-9.57,0,0-.02,0-.03,0-.02,0-.04,0-.06,0l-132.05.89-83.59-2.38c-.09,0-.18,0-.28,0h0Z"/>
  </g>
</svg>