<?xml version="1.0" encoding="UTF-8"?>
<svg id="Layer_1" xmlns="http://www.w3.org/2000/svg" version="1.1" viewBox="0 0 2470.86 797.86">
  <!-- Generator: Adobe Illustrator 29.4.0, SVG Export Plug-In . SVG Version: 2.1.0 Build 152)  -->
  <defs>
    <style>
      .st0 {
        fill: #004bb7;
      }
    </style>
  </defs>
  <path class="st0" d="M1030.61,444.22c-24.97,0-45.29-20.32-45.29-45.29s20.31-45.29,45.29-45.29,45.29,20.32,45.29,45.29-20.32,45.29-45.29,45.29M1030.61,295.44c-57.06,0-103.49,46.42-103.49,103.49s46.42,103.49,103.49,103.49,103.49-46.42,103.49-103.49-46.43-103.49-103.49-103.49M526.38,526.32c34.03-34.03,52.77-79.27,52.77-127.39s-18.74-93.36-52.77-127.39c-34.03-34.03-79.27-52.77-127.39-52.77s-93.36,18.74-127.39,52.77c-34.03,34.03-52.77,79.27-52.77,127.39s18.74,93.36,52.77,127.39c34.03,34.03,79.27,52.77,127.39,52.77s93.36-18.74,127.39-52.77M592.01,398.93c0,106.6-86.42,193.02-193.03,193.02s-193.03-86.42-193.03-193.02,86.42-193.03,193.03-193.03,193.03,86.42,193.03,193.03M1791.24,444.22c-24.97,0-45.29-20.32-45.29-45.29s20.31-45.29,45.29-45.29,45.29,20.32,45.29,45.29-20.32,45.29-45.29,45.29M1791.24,295.44c-57.06,0-103.49,46.42-103.49,103.49s46.42,103.49,103.49,103.49,103.49-46.42,103.49-103.49-46.43-103.49-103.49-103.49M1659.49,300.75l-101.74,82.71-101.75-82.71c-1.85-1.5-4.61-.19-4.61,2.19v191.21c0,2.08,1.69,3.77,3.77,3.77h49.61c2.08,0,3.77-1.69,3.77-3.77v-84.56l49.22,40,49.2-40v84.56c0,2.08,1.69,3.77,3.77,3.77h49.61c2.08,0,3.77-1.69,3.77-3.77v-191.2c0-2.38-2.76-3.7-4.61-2.19M2051.19,299.94h-149.72c-2.08,0-3.77,1.69-3.77,3.77v44.48c0,2.08,1.69,3.77,3.77,3.77h46.29v142.19c0,2.08,1.69,3.77,3.77,3.77h49.61c2.08,0,3.77-1.69,3.77-3.77v-142.19h46.29c2.08,0,3.77-1.69,3.77-3.77v-44.48c0-2.08-1.69-3.77-3.77-3.77M2161.41,444.22c-24.97,0-45.29-20.32-45.29-45.29s20.31-45.29,45.29-45.29,45.29,20.32,45.29,45.29-20.32,45.29-45.29,45.29M2161.41,295.44c-57.06,0-103.49,46.42-103.49,103.49s46.43,103.49,103.49,103.49,103.49-46.42,103.49-103.49-46.42-103.49-103.49-103.49M898.86,300.75l-101.74,82.71-101.75-82.71c-1.85-1.5-4.61-.19-4.61,2.19v191.21c0,2.08,1.69,3.77,3.77,3.77h49.61c2.08,0,3.77-1.69,3.77-3.77v-84.56l49.22,40,49.2-40v84.56c0,2.08,1.69,3.77,3.77,3.77h49.61c2.08,0,3.77-1.69,3.77-3.77v-191.2c0-2.38-2.76-3.7-4.61-2.19M503.96,299.94h-51.56c-2.16,0-3.92,1.69-3.92,3.77v190.44c0,2.08,1.75,3.77,3.92,3.77h51.56c2.16,0,3.92-1.69,3.92-3.77v-190.44c0-2.08-1.75-3.77-3.92-3.77M424.77,299.94h-51.56c-2.16,0-3.92,1.69-3.92,3.77v190.44c0,2.08,1.75,3.77,3.92,3.77h51.56c2.16,0,3.92-1.69,3.92-3.77v-190.44c0-2.08-1.75-3.77-3.92-3.77M345.58,299.94h-51.56c-2.16,0-3.92,1.69-3.92,3.77v190.44c0,2.08,1.75,3.77,3.92,3.77h51.56c2.16,0,3.92-1.69,3.92-3.77v-190.44c0-2.08-1.75-3.77-3.92-3.77M1414.86,299.94h-49.61c-2.08,0-3.77,1.69-3.77,3.77v190.44c0,2.08,1.69,3.77,3.77,3.77h49.61c2.08,0,3.77-1.69,3.77-3.77v-190.44c0-2.08-1.69-3.77-3.77-3.77M1328.73,304.91v191.21c0,2.38-2.76,3.69-4.61,2.19l-109.23-88.73v84.57c0,2.08-1.69,3.77-3.77,3.77h-49.61c-2.08,0-3.77-1.69-3.77-3.77v-191.21c0-2.38,2.76-3.69,4.61-2.19l109.23,88.73v-84.57c0-2.08,1.69-3.77,3.77-3.77h49.61c2.08,0,3.77,1.69,3.77,3.77"/>
</svg>