<svg width="38" height="29" viewBox="0 0 38 29" fill="none" xmlns="http://www.w3.org/2000/svg">
<g clip-path="url(#clip0_261_686)">
<path d="M11.2379 23.6457C10.8204 23.6457 10.4673 23.6539 10.106 23.6457C8.73342 23.6212 7.66582 22.544 7.64174 21.1567C7.62569 20.4385 7.64174 19.7203 7.64174 18.9287C7.37685 18.9287 7.12801 18.9287 6.87917 18.9287C5.84368 18.9287 5.33798 18.4064 5.32995 17.3455C5.32995 16.9212 5.32995 16.505 5.32995 16.0479C4.89649 16.0479 4.49514 16.0479 4.0376 16.0479C4.0376 16.2928 4.0376 16.5376 4.0376 16.7743C4.02155 17.5169 3.62019 17.9494 2.89776 17.9576C2.31179 17.9658 1.71779 17.9658 1.13181 17.9576C0.425433 17.9413 0.00802681 17.5251 0.00802681 16.8069C-2.28873e-07 15.1339 -2.28873e-07 13.4609 0.00802681 11.788C0.00802681 11.0616 0.441487 10.6291 1.16392 10.621C1.74187 10.6128 2.31179 10.6128 2.88973 10.621C3.61217 10.6291 4.02155 11.0616 4.04563 11.7961C4.06168 12.5796 4.06168 12.5796 4.8403 12.5796C4.98479 12.5796 5.12928 12.5796 5.33798 12.5796C5.33798 12.1062 5.33798 11.6574 5.33798 11.2167C5.33798 10.1884 5.85974 9.65797 6.86312 9.64981C7.10393 9.64981 7.34474 9.64981 7.64174 9.64981C7.64174 9.40499 7.64174 9.1928 7.64174 8.98062C7.64174 8.50729 7.64174 8.0258 7.64174 7.55247C7.65779 6.01006 8.70131 4.94098 10.2264 4.93282C14.858 4.93282 19.4816 4.93282 24.1132 4.93282C24.2818 4.93282 24.4504 4.93282 24.7153 4.93282C24.6029 4.72064 24.5467 4.57374 24.4664 4.45133C24.049 3.79846 24.0811 3.47202 24.627 2.90892C25.0684 2.45191 25.5099 2.00306 25.9594 1.55421C26.433 1.08088 26.8023 1.04824 27.3481 1.41548C27.9261 1.79904 28.3194 1.63582 28.4559 0.95847C28.5843 0.31376 28.8893 0.0444507 29.5315 0.0444507C30.1977 0.0362899 30.872 0.0362899 31.5382 0.0444507C32.1724 0.0526116 32.4694 0.305599 32.5978 0.925826C32.7503 1.66031 33.1276 1.81536 33.7617 1.391C34.2514 1.06456 34.6367 1.08088 35.0621 1.49709C35.5437 1.97042 36.0093 2.45191 36.4829 2.9334C36.9806 3.43938 37.0207 3.82294 36.6274 4.41869C36.4749 4.64719 36.4026 4.85121 36.523 5.12868C36.6194 5.35719 36.7478 5.45512 36.9806 5.51224C37.8475 5.69994 38 5.90397 38 6.81799C38 7.43005 38 8.04212 38 8.65419C37.992 9.30706 37.7592 9.60085 37.1411 9.73958C36.4267 9.89464 36.2742 10.2864 36.6755 10.9229C36.9806 11.4044 36.9725 11.8206 36.5872 12.2205C36.0253 12.8081 35.4474 13.363 34.8775 13.9424C34.8052 14.0159 34.725 14.1138 34.725 14.1954C34.7089 14.6851 34.7169 15.1666 34.7169 15.7134C35.0782 15.7134 35.3912 15.7052 35.7123 15.7134C36.4187 15.7215 36.7719 16.0888 36.7799 16.7987C36.7879 17.5169 36.7879 18.2432 36.7799 18.9614C36.7719 19.6714 36.4106 20.1039 35.7203 20.0386C34.9256 19.9652 34.5323 20.1774 34.2433 21.0098C33.7858 22.3318 32.7664 23.1887 31.4098 23.5478C31.2091 23.6049 31.1128 23.6702 31.1208 23.8906C31.1369 24.217 31.1208 24.5353 31.1208 24.9188C31.6185 24.9188 32.068 24.9188 32.5175 24.9188C33.1196 24.9188 33.7216 24.9107 34.3236 24.9188C34.7972 24.927 34.9818 25.1147 34.9818 25.5962C34.9899 26.1674 34.9899 26.7387 34.9818 27.31C34.9738 27.8323 34.7892 28.02 34.2755 28.02C32.3891 28.02 30.5027 28.02 28.6164 28.02C21.8335 28.02 15.0507 28.02 8.26785 28.02C7.48923 28.02 7.37685 27.9057 7.37685 27.1304C7.37685 26.6245 7.37685 26.1266 7.37685 25.6207C7.38488 25.082 7.53739 24.9107 8.0752 24.9025C8.99831 24.8943 9.92142 24.8862 10.8445 24.9025C11.1335 24.9107 11.27 24.8372 11.2379 24.5189C11.2218 24.2496 11.2379 23.9803 11.2379 23.6457ZM28.4559 18.9777C28.4559 17.4435 28.4639 15.9419 28.4478 14.4484C28.4478 14.2199 28.3435 13.9343 28.191 13.7874C27.9261 13.5344 27.621 13.616 27.3321 13.8527C26.9949 14.1383 26.6177 14.1628 26.2163 13.9424C26.0156 13.8363 25.7748 13.7547 25.5501 13.7547C22.0021 13.7384 18.4622 13.7466 14.9142 13.7384C14.256 13.7384 13.9831 13.567 13.9911 13.1672C13.9992 12.7836 14.256 12.6204 14.8982 12.6204C18.0528 12.6204 21.2074 12.6204 24.3701 12.6204C24.5065 12.6204 24.643 12.6204 24.8196 12.6204C24.5547 12.245 24.338 11.9267 24.0731 11.5431C24.0008 11.5431 23.8403 11.5431 23.6878 11.5431C20.774 11.5431 17.8521 11.5431 14.9383 11.5431C14.8179 11.5431 14.6975 11.5513 14.5771 11.535C14.248 11.5023 14.0072 11.3473 14.0072 10.98C14.0072 10.6128 14.24 10.4496 14.5771 10.4251C14.6975 10.4169 14.8179 10.4251 14.9383 10.4251C18.0287 10.4251 21.1191 10.4251 24.2095 10.4251C24.346 10.4251 24.4905 10.4251 24.7474 10.4251C24.5627 10.1558 24.4825 9.87832 24.3139 9.81303C23.9447 9.66613 23.5433 9.56004 23.15 9.56004C19.6341 9.54372 16.1183 9.55188 12.5944 9.55188C12.4499 9.55188 12.3135 9.5682 12.169 9.5682C12.169 12.7265 12.169 15.8358 12.169 18.9614C17.5872 18.9777 22.9975 18.9777 28.4559 18.9777ZM28.4639 20.0957C28.2391 20.0957 28.0625 20.0957 27.894 20.0957C21.7372 20.0957 15.5885 20.0957 9.43177 20.0957C8.58893 20.0957 8.72539 19.9815 8.71736 20.8302C8.70934 21.9972 9.23912 22.5359 10.379 22.5359C16.2387 22.5359 22.0984 22.5359 27.9582 22.5359C28.1107 22.5359 28.2712 22.5359 28.4398 22.5359C28.4559 22.389 28.4639 22.291 28.4639 22.2013C28.4639 21.5239 28.4639 20.8465 28.4639 20.0957ZM35.7203 11.4697C35.7123 11.4534 35.7043 11.4126 35.6802 11.3799C34.9899 10.1884 35.3992 9.12752 36.6996 8.68683C36.7879 8.65418 36.9083 8.53177 36.9083 8.45016C36.9244 7.8381 36.9164 7.23419 36.9164 6.63029C36.8441 6.59764 36.804 6.58132 36.7638 6.57316C35.4554 6.22224 35.0059 5.15317 35.632 3.92087C35.6722 3.83926 35.6722 3.67604 35.616 3.61076C35.2066 3.16191 34.7812 2.73754 34.3798 2.32134C34.2995 2.34582 34.2674 2.34582 34.2514 2.36214C33.0313 3.0803 32.052 2.7049 31.5703 1.33387C31.5382 1.23594 31.3697 1.12985 31.2573 1.12169C30.7757 1.0972 30.294 1.12169 29.8124 1.10537C29.6037 1.10537 29.5154 1.17065 29.4592 1.391C29.1783 2.558 27.9582 3.07214 26.9548 2.43559C26.7621 2.31318 26.6578 2.33766 26.5133 2.49272C26.2083 2.81915 25.9033 3.13743 25.5741 3.43938C25.3654 3.63524 25.3173 3.7903 25.4939 4.05961C25.9193 4.72064 25.6303 5.92029 24.9641 6.32833C24.7313 6.46707 24.4504 6.52419 24.1534 6.63845C24.1534 7.21787 24.1453 7.81361 24.1614 8.40936C24.1614 8.50729 24.3059 8.65418 24.4102 8.68683C25.5661 9.02959 26.0558 10.2129 25.4537 11.2412C25.3494 11.4207 25.3333 11.5431 25.4939 11.69C25.8471 12.0246 26.1842 12.3755 26.5133 12.7265C26.6578 12.8815 26.7702 12.8897 26.9548 12.7754C27.9662 12.1552 29.1622 12.6693 29.4673 13.8363C29.4913 13.9343 29.5877 14.0812 29.6519 14.0893C30.278 14.1057 30.8961 14.0975 31.5061 14.0975C31.9396 12.5551 32.8386 12.1797 34.2995 12.8734C34.7892 12.4164 35.2467 11.9512 35.7203 11.4697ZM23.0617 6.0427C22.9573 6.03454 22.8289 6.02638 22.6924 6.02638C18.5585 6.02638 14.4326 6.02638 10.2987 6.02638C9.2632 6.02638 8.71736 6.58948 8.70934 7.64224C8.70934 7.78913 8.71736 7.94419 8.70934 8.09108C8.68526 8.36855 8.77355 8.47465 9.06253 8.47465C13.6058 8.46648 18.1572 8.46648 22.7005 8.47465C22.9814 8.47465 23.0777 8.38488 23.0697 8.09925C23.0537 7.43005 23.0617 6.76902 23.0617 6.0427ZM29.5716 22.5685C30.1496 22.5277 30.6874 22.5603 31.2011 22.4379C32.4774 22.1441 33.5049 20.9037 33.5851 19.3939C33.6815 17.5904 33.6333 15.7868 33.6333 13.9751C33.6333 13.6813 33.4246 13.5752 33.1356 13.6568C32.7985 13.7547 32.654 13.9669 32.5978 14.3178C32.4935 14.9625 32.1724 15.2155 31.5222 15.2319C31.2974 15.2319 31.0646 15.2319 30.8399 15.2319C30.4225 15.2319 29.997 15.2319 29.5716 15.2319C29.5716 17.6964 29.5716 20.0794 29.5716 22.5685ZM8.50063 26.0287C8.36417 26.9182 8.36417 26.9182 9.1749 26.9182C17.2019 26.9182 25.221 26.9182 33.248 26.9182C33.9303 26.9182 33.9303 26.9182 33.8982 26.2327C33.8982 26.1674 33.8661 26.1103 33.85 26.0369C25.3976 26.0287 16.9611 26.0287 8.50063 26.0287ZM11.0211 9.56004C10.3709 9.56004 9.76891 9.58453 9.1749 9.55188C8.80566 9.53556 8.70131 9.65797 8.70934 10.0334C8.72539 12.8734 8.71736 15.7134 8.71736 18.5452C8.71736 18.6921 8.73342 18.8308 8.73342 18.9695C9.52007 18.9695 10.2666 18.9695 11.0211 18.9695C11.0211 15.8358 11.0211 12.7265 11.0211 9.56004ZM14.2239 24.9107C14.4085 24.9107 14.561 24.9107 14.7216 24.9107C19.0401 24.9107 23.3507 24.9107 27.6692 24.9107C27.7655 24.9107 27.8699 24.9352 27.9501 24.9025C28.0384 24.8617 28.1589 24.7638 28.1669 24.6903C28.191 24.3557 28.1749 24.0211 28.1749 23.6784C23.4951 23.6784 18.8635 23.6784 14.2319 23.6784C14.2239 24.0864 14.2239 24.47 14.2239 24.9107ZM7.60963 17.7617C7.61766 17.7291 7.63371 17.7046 7.63371 17.6801C7.63371 15.4685 7.63371 13.2569 7.64174 11.0453C7.64174 10.8087 7.54542 10.7352 7.32869 10.7515C7.22433 10.7597 7.11196 10.7515 7.0076 10.7515C6.43769 10.7515 6.42163 10.7597 6.42163 11.3391C6.42163 13.159 6.42163 14.9789 6.42163 16.7906C6.42163 17.9168 6.42163 17.9168 7.53739 17.7944C7.55344 17.7944 7.5695 17.7862 7.60963 17.7617ZM2.92987 13.6976C2.31179 13.6976 1.71779 13.6976 1.08365 13.6976C1.08365 14.0485 1.07562 14.3831 1.09168 14.7177C1.09168 14.7748 1.20406 14.8809 1.26024 14.8809C1.81411 14.8973 2.36798 14.8891 2.92987 14.8891C2.92987 14.4647 2.92987 14.0893 2.92987 13.6976ZM35.6882 18.9043C35.6882 18.4146 35.6882 17.9413 35.6882 17.4761C35.6882 16.7498 35.6561 16.7171 34.9497 16.8151C34.8614 16.8232 34.725 16.9375 34.725 17.0109C34.7089 17.6393 34.7169 18.2759 34.7169 18.9124C35.0701 18.9043 35.3591 18.9043 35.6882 18.9043ZM1.99071 16.8477C2.20744 16.8477 2.41614 16.8314 2.63287 16.8477C2.94592 16.8804 2.97803 16.6927 2.96198 16.4478C2.94592 16.2275 3.02619 15.9663 2.64892 15.9827C2.23954 16.0071 1.82214 15.999 1.41276 15.9827C1.13984 15.9745 1.09168 16.0969 1.07562 16.3417C1.05154 16.7253 1.16392 16.8967 1.55725 16.8396C1.6937 16.8314 1.84622 16.8477 1.99071 16.8477ZM4.06971 13.6976C4.06971 14.122 4.06971 14.4892 4.06971 14.8728C4.49514 14.8728 4.88847 14.8728 5.29785 14.8728C5.29785 14.4647 5.29785 14.0893 5.29785 13.6976C4.88044 13.6976 4.48711 13.6976 4.06971 13.6976ZM2.92987 11.7227C2.36798 11.7227 1.83819 11.7145 1.30841 11.7227C0.971271 11.7308 1.0997 12.0083 1.09168 12.1797C1.07562 12.3592 1.04351 12.5796 1.34052 12.5714C1.70976 12.5632 2.08703 12.5714 2.45627 12.5714C2.97803 12.5714 2.97803 12.5714 2.96198 12.0246C2.95395 11.943 2.94592 11.8696 2.92987 11.7227ZM12.3295 24.9107C12.5222 24.9107 12.6827 24.9352 12.8352 24.9025C12.9316 24.8862 13.0841 24.7964 13.0921 24.7393C13.1162 24.3802 13.1001 24.0293 13.1001 23.6784C12.7951 23.6784 12.5703 23.6784 12.3215 23.6784C12.3295 24.0864 12.3295 24.4537 12.3295 24.9107ZM29.2586 24.9107C29.4512 24.9107 29.6117 24.9352 29.7643 24.9025C29.8606 24.8862 30.0131 24.7964 30.0211 24.7311C30.0452 24.3802 30.0292 24.0211 30.0292 23.6702C29.7322 23.6702 29.4994 23.6702 29.2586 23.6702C29.2586 24.0864 29.2586 24.4537 29.2586 24.9107Z" fill="#EA580C"/>
<path d="M20.3164 15.9336C18.4863 15.9336 16.6481 15.9336 14.8179 15.9336C14.6734 15.9336 14.4808 15.9663 14.3925 15.8928C14.2239 15.7541 14.0072 15.5419 14.0152 15.3624C14.0232 15.1828 14.256 14.9951 14.4326 14.8564C14.5209 14.7911 14.6895 14.8319 14.8259 14.8319C18.4782 14.8319 22.1305 14.8319 25.7828 14.8319C25.839 14.8319 25.8872 14.8319 25.9434 14.8319C26.3688 14.8401 26.6177 15.036 26.6257 15.3624C26.6417 15.7051 26.3768 15.9336 25.9434 15.9336C24.0651 15.9336 22.1948 15.9336 20.3164 15.9336Z" fill="#EA580C"/>
<path d="M20.3245 17.0109C22.1305 17.0109 23.9366 17.0109 25.7427 17.0109C25.8872 17.0109 26.0397 17.0028 26.1842 17.0354C26.4651 17.1007 26.6658 17.3047 26.6016 17.5822C26.5534 17.778 26.3447 17.9494 26.1681 18.0882C26.0798 18.1534 25.9113 18.1126 25.7748 18.1126C22.1225 18.1126 18.4702 18.1126 14.8179 18.1126C14.7136 18.1126 14.6012 18.1208 14.4968 18.1045C14.1918 18.0637 13.9911 17.9005 13.9911 17.574C13.9831 17.2313 14.1918 17.0517 14.5129 17.0191C14.6172 17.0109 14.7296 17.0109 14.834 17.0109C16.6641 17.0191 18.4943 17.0191 20.3245 17.0109Z" fill="#EA580C"/>
<path d="M25.9915 7.57689C26.0397 4.97357 28.1107 2.94967 30.6553 3.0068C33.1436 3.05576 35.1263 5.17759 35.0782 7.74011C35.038 10.2537 32.951 12.302 30.4787 12.2612C27.9742 12.2123 25.9434 10.0986 25.9915 7.57689ZM27.0752 7.62586C27.0752 9.56815 28.6324 11.1514 30.5509 11.1432C32.4453 11.1432 33.9945 9.56815 34.0025 7.63402C34.0106 5.68357 32.4694 4.10852 30.5429 4.10035C28.6244 4.09219 27.0752 5.67541 27.0752 7.62586Z" fill="#EA580C"/>
</g>
<defs>
<clipPath id="clip0_261_686">
<rect width="38" height="28" fill="white" transform="translate(0 0.0200195)"/>
</clipPath>
</defs>
</svg>
