<svg width="40" height="45" viewBox="0 0 40 45" fill="none" xmlns="http://www.w3.org/2000/svg">
<g clip-path="url(#clip0_2057_1051)">
<path d="M15.6492 2.17896H17.7538C18.2193 2.17896 18.5971 2.55683 18.5971 3.02235V5.14789H14.8058V3.02235C14.8058 2.55683 15.1837 2.17896 15.6492 2.17896Z" stroke="#EA580C" stroke-miterlimit="10"/>
<path d="M7.63723 4.73022H4.91602V5.14769H7.63723V4.73022Z" stroke="#EA580C" stroke-miterlimit="10"/>
<path d="M7.77055 3.57202H4.78273C4.65577 3.57202 4.55286 3.67487 4.55286 3.80174V4.49927C4.55286 4.62613 4.65577 4.72898 4.78273 4.72898H7.77055C7.89751 4.72898 8.00043 4.62613 8.00043 4.49927V3.80174C8.00043 3.67487 7.89751 3.57202 7.77055 3.57202Z" stroke="#EA580C" stroke-miterlimit="10"/>
<path d="M5.38943 3.29639H7.15179C7.23052 3.29639 7.29507 3.36037 7.29507 3.43956V3.57225H5.24615V3.43956C5.24615 3.3609 5.31018 3.29639 5.38943 3.29639Z" stroke="#EA580C" stroke-miterlimit="10"/>
<path d="M10.7101 3.43384H12.5926C12.7989 3.43384 12.9663 3.60126 12.9663 3.80751V5.14791H10.3369V3.80751C10.3369 3.60126 10.5044 3.43384 10.7106 3.43384H10.7101Z" stroke="#EA580C" stroke-miterlimit="10"/>
<path d="M12.5475 2.8938H10.7547V3.43347H12.5475V2.8938Z" stroke="#EA580C" stroke-miterlimit="10"/>
<path d="M12.864 2.32593H10.4393C10.2836 2.32593 10.1574 2.45202 10.1574 2.60756V2.61176C10.1574 2.7673 10.2836 2.89339 10.4393 2.89339H12.864C13.0196 2.89339 13.1458 2.7673 13.1458 2.61176V2.60756C13.1458 2.45202 13.0196 2.32593 12.864 2.32593Z" stroke="#EA580C" stroke-miterlimit="10"/>
<path d="M10.7731 1.99268H12.5296C12.6435 1.99268 12.7364 2.08498 12.7364 2.19931V2.32571H10.5668V2.19931C10.5668 2.08551 10.6592 1.99268 10.7736 1.99268H10.7731Z" stroke="#EA580C" stroke-miterlimit="10"/>
<path d="M12.4378 0.419922H10.8649V1.99282H12.4378V0.419922Z" stroke="#EA580C" stroke-miterlimit="10"/>
<path d="M2.77318 9.19535H3.73728V14.4173H2.77318C2.05207 14.4173 1.46637 13.8316 1.46637 13.1105V10.5016C1.46637 9.78053 2.05207 9.19482 2.77318 9.19482V9.19535Z" stroke="#EA580C" stroke-miterlimit="10"/>
<path d="M5.13381 5.14795H18.5027C19.2437 5.14795 19.8452 5.7494 19.8452 6.49045V6.61641H3.79184V6.49045C3.79184 5.7494 4.39329 5.14795 5.13434 5.14795H5.13381Z" stroke="#EA580C" stroke-miterlimit="10"/>
<path d="M3.79185 8.09497H19.8452V14.9717C19.8452 15.7128 19.2437 16.3142 18.5027 16.3142H5.13382C4.39277 16.3142 3.79132 15.7128 3.79132 14.9717V8.09497H3.79185Z" stroke="#EA580C" stroke-miterlimit="10"/>
<path d="M19.8 6.62646H3.50266C3.216 6.62646 2.98361 6.85885 2.98361 7.14552V7.57535C2.98361 7.86201 3.216 8.0944 3.50266 8.0944H19.8C20.0867 8.0944 20.3191 7.86201 20.3191 7.57535V7.14552C20.3191 6.85885 20.0867 6.62646 19.8 6.62646Z" stroke="#EA580C" stroke-miterlimit="10"/>
<path d="M16.9749 16.3142H6.7146V18.5085H16.9749V16.3142Z" stroke="#EA580C" stroke-miterlimit="10"/>
<path d="M12.8052 32.7166C15.1049 32.7166 16.9691 30.8523 16.9691 28.5526C16.9691 26.2529 15.1049 24.3887 12.8052 24.3887C10.5055 24.3887 8.64124 26.2529 8.64124 28.5526C8.64124 30.8523 10.5055 32.7166 12.8052 32.7166Z" stroke="#EA580C" stroke-miterlimit="10"/>
<path d="M12.8052 30.0283C13.6202 30.0283 14.281 29.3675 14.281 28.5525C14.281 27.7374 13.6202 27.0767 12.8052 27.0767C11.9901 27.0767 11.3294 27.7374 11.3294 28.5525C11.3294 29.3675 11.9901 30.0283 12.8052 30.0283Z" stroke="#EA580C" stroke-miterlimit="10"/>
<path d="M19.8452 23.3048C19.6961 23.3048 19.5492 23.3153 19.4048 23.3331C17.8246 21.247 15.3212 19.8987 12.5018 19.8987C7.80465 19.8987 3.98131 23.6412 3.85168 28.3074L3.78817 28.0723C3.626 27.4693 3.00514 27.1119 2.40211 27.2746L1.25695 27.5832C0.653923 27.7453 0.296518 28.3662 0.459213 28.9692L1.29893 32.0867C1.4611 32.6897 2.08197 33.0471 2.68499 32.8844L2.77526 32.8603C2.88443 33.2985 3.09855 33.7173 3.42132 34.0763L9.20173 40.5127C10.2551 41.6857 12.0599 41.7828 13.2329 40.729L15.7038 38.51C16.3934 37.8907 16.7104 37.0121 16.6411 36.1546C18.88 34.9328 20.5196 32.7511 21.0061 30.1621C22.3832 29.6819 23.3715 28.373 23.3715 26.8321C23.3715 24.8845 21.7928 23.3053 19.8446 23.3053L19.8452 23.3048Z" stroke="#EA580C" stroke-miterlimit="10" stroke-linejoin="round"/>
<path d="M28.2135 13.1685H27.263C27.0448 13.1685 26.8679 13.3454 26.8679 13.5636V19.4847C26.8679 19.703 27.0448 19.8799 27.263 19.8799H28.2135C28.4318 19.8799 28.6087 19.703 28.6087 19.4847V13.5636C28.6087 13.3454 28.4318 13.1685 28.2135 13.1685Z" stroke="#EA580C" stroke-miterlimit="10"/>
<path d="M22.4934 15.1482C22.8293 14.8576 23.4701 14.382 24.4038 14.1197C25.4986 13.8119 26.4217 13.9587 26.8678 14.0605" stroke="#EA580C" stroke-miterlimit="10"/>
<path d="M25.0472 20.7395C25.0404 20.6671 24.9816 19.914 25.5805 19.397C26.1242 18.9278 26.7776 19.026 26.8678 19.0406" stroke="#EA580C" stroke-miterlimit="10"/>
<path d="M20.9867 16.0423L19.9585 16.8636L19.3403 16.0203" stroke="#EA580C" stroke-miterlimit="10"/>
<path d="M15.149 39.0075L24.5182 41.7251V42.8214C24.5182 43.4502 25.0278 43.9598 25.6566 43.9598H26.7886C27.4173 43.9598 27.9269 43.4502 27.9269 42.8214V38.4612" stroke="#EA580C" stroke-miterlimit="10"/>
<path d="M25.295 22.2908L33.4833 26.7749L38.3746 33.1971H38.7835C39.2238 33.1971 39.5812 33.554 39.5812 33.9949V35.7583C39.5812 36.1986 39.2243 36.556 38.7835 36.556H37.3454L30.5327 38.1893" stroke="#EA580C" stroke-miterlimit="10"/>
<path d="M28.8092 38.5608C31.1089 38.5608 32.9731 36.6966 32.9731 34.3969C32.9731 32.0972 31.1089 30.2329 28.8092 30.2329C26.5095 30.2329 24.6452 32.0972 24.6452 34.3969C24.6452 36.6966 26.5095 38.5608 28.8092 38.5608Z" stroke="#EA580C" stroke-miterlimit="10"/>
<path d="M28.8092 35.8728C29.6242 35.8728 30.285 35.212 30.285 34.3969C30.285 33.5819 29.6242 32.9211 28.8092 32.9211C27.9941 32.9211 27.3334 33.5819 27.3334 34.3969C27.3334 35.212 27.9941 35.8728 28.8092 35.8728Z" stroke="#EA580C" stroke-miterlimit="10"/>
<path d="M6.71461 17.5308H5.21256C4.50457 17.5308 3.93094 18.1044 3.93094 18.8124V22.4646C3.93094 23.1726 4.50457 23.7463 5.21256 23.7463" stroke="#EA580C" stroke-miterlimit="10"/>
<path d="M21.6422 14.2424L20.7764 14.6345C20.5776 14.7246 20.4894 14.9588 20.5795 15.1576L23.9084 22.5064C23.9985 22.7052 24.2326 22.7933 24.4314 22.7033L25.2972 22.3111C25.496 22.221 25.5842 21.9869 25.4941 21.788L22.1652 14.4393C22.0752 14.2405 21.841 14.1523 21.6422 14.2424Z" stroke="#EA580C" stroke-miterlimit="10"/>
</g>
<defs>
<clipPath id="clip0_2057_1051">
<rect width="40" height="44.3786" fill="white"/>
</clipPath>
</defs>
</svg>
