<svg width="25" height="25" viewBox="0 0 25 25" fill="none" xmlns="http://www.w3.org/2000/svg">
<path d="M7.48193 15.1523C10.2434 15.1523 12.4819 12.9138 12.4819 10.1523C12.4819 7.39092 10.2434 5.15234 7.48193 5.15234C4.72051 5.15234 2.48193 7.39092 2.48193 10.1523C2.48193 12.9138 4.72051 15.1523 7.48193 15.1523Z" stroke="#EA580C" stroke-width="2" stroke-linecap="round" stroke-linejoin="round"/>
<path d="M16.132 12.1523C16.9431 12.4556 17.6649 12.959 18.2306 13.6161C18.7963 14.2732 19.1877 15.0627 19.3684 15.9117C19.5492 16.7606 19.5136 17.6415 19.2649 18.473C19.0161 19.3045 18.5624 20.0596 17.9455 20.6686C17.3286 21.2776 16.5685 21.7208 15.7356 21.9572C14.9026 22.1936 14.0236 22.2156 13.18 22.0211C12.3363 21.8266 11.5551 21.4219 10.9088 20.8445C10.2624 20.267 9.77165 19.5355 9.48193 18.7175" stroke="#EA580C" stroke-width="2" stroke-linecap="round" stroke-linejoin="round"/>
<path d="M6.48193 8.15234H7.48193V12.1523" stroke="#EA580C" stroke-width="2" stroke-linecap="round" stroke-linejoin="round"/>
<path d="M14.9855 15.1523L15.4819 15.7557L13.4819 18.1523" stroke="#EA580C" stroke-width="2" stroke-linecap="round" stroke-linejoin="round"/>
<path d="M15.0782 4.58437C15.8036 4.10955 16.6376 3.82492 17.5029 3.75681C18.3682 3.6887 19.2369 3.83931 20.0286 4.19471C20.8204 4.55011 21.5097 5.09883 22.0327 5.79012C22.5557 6.48141 22.8956 7.29295 23.021 8.14968C23.1463 9.00642 23.053 9.8807 22.7498 10.6917C22.4466 11.5026 21.9431 12.2241 21.2861 12.7893" stroke="#EA580C" stroke-width="2" stroke-linecap="round" stroke-linejoin="round"/>
<path d="M16.1763 8.00304L16.8395 7.58983L18.9537 9.8863" stroke="#EA580C" stroke-width="2" stroke-linecap="round" stroke-linejoin="round"/>
</svg>
