<svg width="271" height="119" viewBox="0 0 271 119" fill="none" xmlns="http://www.w3.org/2000/svg">
<g clip-path="url(#clip0_312_218)">
<path d="M189.145 33.6119C189.252 34.7838 190.159 35.4763 190.799 36.2753C191.065 36.5949 191.385 36.9678 191.918 36.5949C196.771 33.1857 202.583 32.9727 208.129 32.4933C218.368 31.5877 228.34 33.0259 237.672 37.5537C241.191 39.2583 244.391 41.4955 247.11 44.372C247.697 44.9579 248.39 45.7037 247.803 46.4494C247.057 47.355 246.417 46.2896 245.83 45.9167C238.311 41.389 230.046 39.205 221.354 38.6723C215.382 38.2994 209.462 38.5125 203.703 40.4834C202.53 40.8563 201.357 41.2824 200.237 41.8151C196.504 43.6262 196.558 43.6262 199.011 46.769C202.104 50.6576 205.25 54.4928 208.236 58.4346C209.196 59.7131 210.209 59.9794 211.649 59.6065C225.833 55.718 239.698 56.4637 253.083 62.8559C260.762 66.4781 266.841 71.8581 270.2 79.9015C270.573 80.7538 271.693 82.0322 270.253 82.6182C269.027 83.0976 268.867 81.6061 268.494 80.7538C264.228 71.0591 256.282 65.6258 246.63 62.2699C235.859 58.5412 224.873 58.3814 213.835 60.9382C210.902 61.6307 210.849 61.8438 212.769 64.2408C216.928 69.461 221.034 74.628 225.193 79.8482C225.62 80.3809 226.1 80.9669 226.473 81.5528C226.847 82.1387 227.433 82.778 226.633 83.4172C225.887 83.9499 225.513 83.1508 225.14 82.778C224.66 82.2453 224.234 81.7126 223.807 81.1267C219.221 75.3737 214.582 69.6208 210.102 63.8147C209.249 62.696 208.449 62.483 207.223 62.9624C197.411 66.8509 188.932 72.2842 183.76 81.9257C183.386 82.6182 183.173 84.0564 182.053 83.4704C181.04 82.9378 181.627 81.7126 182.053 80.8603C185.466 74.4149 190.585 69.6208 196.771 65.8388C199.597 64.1343 202.53 62.6428 205.623 61.5242C207.116 60.9915 207.649 60.4588 206.37 58.9673C202.477 54.2265 198.744 49.4324 195.011 44.585C194.051 43.3599 193.198 43.3066 191.812 43.786C176.027 48.7932 160.19 53.7471 144.405 58.7542C126.541 64.3473 108.731 69.9937 90.8666 75.5868C89.1069 76.1195 88.5203 76.5989 89.3202 78.4633C89.9601 79.9548 90.44 81.6593 90.1734 83.4172C90.12 83.9499 90.1734 84.6423 89.4801 84.6956C88.6803 84.8021 88.4136 84.0564 88.4136 83.4704C88.4136 82.0322 88.0404 80.7005 87.6138 79.3156C87.0805 77.611 86.174 76.9185 84.2542 77.611C77.8019 79.795 71.2428 81.7659 64.7371 83.79C62.1775 84.5891 59.6712 85.3348 57.1116 86.1338C56.365 86.3469 55.4052 86.9328 55.0319 85.9208C54.6053 84.6956 55.8851 84.5358 56.685 84.3227C61.8042 82.6714 66.9768 81.0734 72.1494 79.4221C76.4687 78.0371 80.7348 76.7054 85.4274 75.2139C81.9079 70.4731 77.3753 67.5967 72.3627 65.8921C53.6988 59.5 35.5148 60.9915 18.024 70.047C11.3583 73.5094 5.75916 78.1969 3.03956 85.5479C2.82626 86.1338 2.45298 86.773 1.70643 86.5067C0.74657 86.1338 1.2265 85.3348 1.4398 84.6956C3.46617 79.0492 7.41225 74.8411 12.1582 71.4852C22.45 64.1343 34.1816 61.0447 46.6065 60.299C55.6185 59.7663 64.5238 60.7251 73.0026 64.1343C78.1751 66.2117 82.9744 68.8751 86.4406 73.3496C87.5604 74.7878 88.7336 74.3084 90.0134 73.9355C99.5053 70.9525 108.944 67.9695 118.436 64.9866C141.792 57.3693 165.309 50.0183 188.825 42.6141C189.892 42.2945 190.958 41.8684 192.025 41.4955C188.879 34.5174 182.373 32.0139 176.187 29.2972C161.31 22.7453 146.485 23.8106 131.341 28.9243C120.356 32.5998 108.944 34.837 97.2657 35.5295C84.8941 36.222 72.8426 34.4642 60.7377 32.7063C48.8995 31.0018 37.0612 29.457 25.1163 28.8178C21.5968 28.6047 18.024 28.2319 14.5045 28.0188C13.2247 27.9655 11.8916 27.6992 9.97188 28.658C14.1846 29.6701 17.8107 30.5756 21.4368 31.4279C35.2481 34.7305 48.8995 38.6723 61.111 46.2896C63.8839 48.0474 66.6035 49.8053 69.3764 51.6164C69.803 51.8827 70.1763 52.3621 70.443 52.7883C70.8162 53.3209 71.1362 53.9601 70.443 54.4396C69.9097 54.8124 69.4298 54.4396 69.0032 54.0667C62.9774 48.8464 55.8851 45.3841 48.7395 41.9749C38.341 37.0743 27.0893 34.8903 15.9977 32.0139C11.625 30.8952 7.25228 29.8832 2.87959 28.7645C2.29301 28.6047 1.6531 28.3917 1.17317 28.0188C0.639919 27.6459 -0.266614 27.273 0.106664 26.4208C0.373291 25.7815 1.17317 25.9413 1.75975 25.9413C18.3973 25.9413 34.9282 27.3263 51.3524 29.4037C62.9241 30.8952 74.4424 33.1857 86.1206 33.7184C97.319 34.2511 108.411 32.8661 119.342 30.2028C125.955 28.6047 132.354 26.1011 139.02 24.6097C152.298 21.5734 165.416 21.9995 178 27.9655C179.493 28.7113 181.093 29.2972 182.64 29.9897C182.8 30.043 182.96 30.0962 183.066 30.2028C183.12 29.9897 183.12 29.7766 183.173 29.5635C178.107 23.1714 172.988 16.8326 167.975 10.3872C166.962 9.10876 165.949 8.46954 164.242 8.46954C158.217 8.41628 152.191 8.14994 146.165 7.99014C145.419 7.99014 144.299 8.20321 144.192 7.13785C144.139 6.01923 145.259 6.17903 146.005 6.17903C152.671 6.33884 159.283 6.60518 165.949 6.76498C167.495 6.81825 168.295 7.7238 169.202 8.73588C171.815 11.8254 173.894 15.3943 176.987 18.111L176.934 18.0045C177.041 19.0698 177.734 19.709 178.587 20.1884L178.534 20.1352C178.854 20.9342 179.014 21.893 180.187 21.7865L180.133 21.7332C179.867 22.3724 180.187 22.692 180.72 22.9051L180.667 22.8518C181.147 23.9704 181.733 24.9825 182.853 25.5685L182.8 25.5152C183.066 26.3142 183.333 27.2198 184.506 27.1665L184.453 27.1132C184.239 28.0721 184.559 28.658 185.573 28.8178L185.519 28.7645C185.466 29.2439 185.679 29.4037 186.106 29.3505L186.053 29.2972C185.839 29.8832 186.106 30.2028 186.639 30.4691L186.586 30.4158C186.852 31.2681 187.226 32.0139 188.292 32.0671L188.239 31.9606C188.026 32.5465 188.292 32.9194 188.825 33.1325L188.772 33.0792C188.825 33.3988 188.985 33.6652 189.359 33.6652L189.145 33.6119ZM236.765 39.6844C236.392 38.7789 235.752 38.6723 235.219 38.4592C230.419 36.3285 225.3 35.1567 220.128 34.5707C212.235 33.7184 204.396 34.2511 196.664 36.2753C196.024 36.4351 195.118 36.4883 195.171 37.4472C195.225 39.2583 197.891 40.7498 199.651 39.9507C207.649 36.4351 216.021 36.3818 224.5 37.0743C228.606 37.4472 232.606 38.5125 236.765 39.6844ZM192.452 37.607C192.452 37.6602 192.398 37.7135 192.398 37.82C192.505 37.82 192.612 37.8733 192.718 37.8733C192.718 37.82 192.718 37.7135 192.665 37.6602C192.612 37.607 192.505 37.607 192.452 37.607Z" fill="#D3A613"/>
<path d="M127.928 108.187C127.874 104.458 127.714 100.729 127.874 97.0005C127.981 94.6567 127.288 93.911 124.942 93.9642C116.943 94.0708 108.944 93.9642 100.998 94.0175C99.132 94.0175 97.319 93.6979 95.4526 93.325C94.546 93.1652 93.5329 92.7391 93.4262 91.8335C93.3196 90.7149 94.4394 90.5551 95.2926 90.342C97.6922 89.7028 100.199 89.4897 102.652 89.4897C126.541 89.4897 150.431 89.4897 174.321 89.4897C176.987 89.4897 179.653 89.6496 182.213 90.4486C182.906 90.6616 183.706 90.8214 183.706 91.727C183.706 92.7391 182.853 93.0054 182.106 93.2185C180.133 93.6979 178.107 94.0175 176.081 94.0175C168.189 93.9642 160.296 94.124 152.404 93.9642C149.791 93.911 149.045 94.7632 149.205 97.2668C149.418 100.889 149.205 104.511 149.151 108.187C142.059 108.187 134.967 108.187 127.928 108.187Z" fill="#D3A613"/>
<path d="M189.679 106.003C189.625 101.635 189.572 97.32 189.519 92.952C189.465 91.354 190.319 90.555 191.758 90.0756C194.745 89.1168 197.891 89.0102 200.984 88.957C213.408 88.9037 225.833 88.7972 238.258 88.957C245.937 89.0635 253.669 89.2233 261.241 91.0877C264.281 91.8334 267.481 92.5792 269.667 95.2425C262.788 96.4144 255.962 98.119 248.923 98.5984C249.137 96.9471 248.337 95.9883 246.897 95.2425C245.457 94.4968 243.911 94.1239 242.364 93.9109C233.992 92.6857 225.567 93.2716 217.195 93.1651C210.529 93.0586 210.582 93.1651 210.742 99.7703C210.796 101.581 211.329 102.274 213.195 102.221C216.928 102.114 220.607 102.221 224.34 102.274C212.822 104.405 201.25 105.044 189.679 106.003Z" fill="#D3A613"/>
<path d="M34.6082 102.753C34.5549 101.049 34.5016 99.3975 34.5016 97.6929C34.5016 94.0174 34.5016 94.0175 30.9288 94.0175C23.1966 94.0175 15.4644 94.0175 7.73219 94.0175C5.75915 94.0175 3.83943 93.7511 1.91972 93.2717C1.06651 93.0586 0 92.8456 0 91.7802C0 90.6616 1.11983 90.6083 1.97304 90.3952C4.31936 89.756 6.71901 89.543 9.06533 89.543C33.0618 89.543 57.0049 89.543 81.0014 89.543C83.401 89.543 85.8007 89.756 88.0937 90.342C89.0002 90.5551 90.28 90.6616 90.1734 91.94C90.0667 93.0586 88.8935 93.2184 87.8804 93.4315C86.0673 93.8044 84.2009 94.0175 82.3345 94.0175C74.4423 93.9642 66.5502 94.0707 58.6047 93.9642C56.2584 93.9109 55.4585 94.6567 55.6718 97.0004C55.8318 99.291 55.6718 101.581 55.6185 103.925C48.6861 103.712 41.7005 102.594 34.6082 102.753Z" fill="#D3A613"/>
<path d="M248.87 98.705C255.909 98.2256 262.681 96.521 269.614 95.3491C271.32 97.6929 271 99.6105 268.44 101.315C264.654 103.819 260.228 104.564 255.856 105.15C242.204 107.121 228.446 106.482 214.742 106.589C210.689 106.642 210.689 106.589 210.689 110.637C210.689 117.136 210.369 117.615 204.13 118.307C200.45 118.734 196.718 118.68 193.038 117.828C190.745 117.295 189.252 116.23 189.519 113.46C189.785 111.01 189.625 108.506 189.679 106.056C201.25 105.097 212.822 104.458 224.287 102.434C229.566 102.274 234.845 102.487 240.125 101.795C243.271 101.368 246.47 101.155 248.87 98.705Z" fill="#CC7013"/>
<path d="M34.6082 102.753C41.7005 102.647 48.6862 103.766 55.7784 103.925C55.8318 107.388 55.7251 110.85 55.8851 114.259C55.9917 116.497 54.9252 117.668 53.0055 118.095C47.7796 119.32 42.5004 119.32 37.2745 118.041C35.4614 117.615 34.4483 116.497 34.5016 114.419C34.6616 110.531 34.6082 106.642 34.6082 102.753Z" fill="#CC7013"/>
<path d="M127.928 108.187C134.967 108.187 142.059 108.187 149.098 108.187C149.151 110.317 149.098 112.448 149.205 114.526C149.311 116.497 148.298 117.562 146.645 117.988C141.259 119.373 135.82 119.32 130.434 117.988C128.728 117.562 127.714 116.497 127.874 114.526C127.928 112.395 127.874 110.264 127.928 108.187Z" fill="#CC7013"/>
<path d="M176.934 18.2176C177.041 16.7793 176.774 15.8205 175.494 14.7019C173.468 12.9441 171.975 10.4938 170.322 8.30978C169.468 7.19115 169.735 6.07253 170.855 5.32679C173.148 3.67549 175.494 2.07746 177.84 0.479426C178.32 0.15982 179.014 -0.319589 179.493 0.426158C180.027 1.22517 179.334 1.70458 178.747 2.07746C176.987 3.30261 175.227 4.4745 173.468 5.69966C172.188 6.55194 171.975 7.40422 173.041 8.68265C174.534 10.547 176.241 12.2516 177.254 14.4356C177.68 15.2878 178.374 15.0215 179.067 15.0215C185.519 15.0215 191.385 19.7091 192.718 25.9414C193.465 29.5103 192.238 32.1737 189.145 33.6119L189.199 33.6652C189.199 33.2923 189.039 33.026 188.612 33.0792L188.665 33.1325C188.879 32.5466 188.452 32.2802 188.079 31.9606L188.132 32.0672C187.599 31.4812 187.546 30.4159 186.426 30.4159L186.479 30.4691C186.692 29.8832 186.426 29.5636 185.893 29.2972L185.946 29.3505C185.733 29.1374 185.519 28.9244 185.359 28.7646L185.413 28.8178C185.306 28.0721 184.879 27.5394 184.293 27.1133L184.346 27.1665C184.079 26.3143 183.706 25.5685 182.64 25.5152L182.693 25.5685C182.533 24.1835 181.893 23.1715 180.507 22.8519L180.56 22.9051C180.827 22.2659 180.507 21.9463 179.973 21.7332L180.027 21.7865C179.867 20.8277 179.493 20.0819 178.374 20.1352L178.427 20.1885C178.587 18.91 178.214 18.0578 176.774 18.0045L176.934 18.2176ZM179.28 17.0989C182.32 21.0408 185.039 24.6097 187.759 28.1786C188.186 28.7646 188.719 29.244 189.092 29.8299C189.839 30.8953 190.372 30.6289 190.639 29.6168C190.852 28.8711 191.012 28.0721 190.958 27.2731C190.585 21.9996 185.253 17.2055 179.28 17.0989Z" fill="#D3A613"/>
<path d="M165.576 57.2096C165.309 58.2216 164.402 58.4347 163.603 58.701C157.31 60.7785 151.018 62.9092 144.672 65.0399C133.474 68.7686 122.275 72.4441 111.13 76.1728C110.65 76.3326 110.117 76.5457 109.637 76.6523C108.891 76.8121 107.931 77.3447 107.611 76.1728C107.344 75.1075 108.357 74.9477 109.104 74.6281C109.69 74.415 110.277 74.2552 110.864 74.0421C124.568 69.4611 138.273 64.9334 152.031 60.3523C155.87 59.0739 159.763 57.8488 163.656 56.6236C164.402 56.4105 165.149 56.0377 165.576 57.2096Z" fill="#D3A613"/>
<path d="M159.923 65.7324C159.656 66.9576 158.697 67.0641 157.897 67.3304C148.511 70.4732 139.126 73.616 129.741 76.7055C126.808 77.6644 123.822 78.6232 120.889 79.5287C120.196 79.7418 119.236 80.381 118.862 79.3157C118.489 78.197 119.609 78.0372 120.302 77.8242C128.248 75.1075 136.193 72.4441 144.192 69.7807C148.725 68.2892 153.257 66.7977 157.79 65.253C158.59 65.0399 159.39 64.7203 159.923 65.7324Z" fill="#D3A613"/>
<path d="M136.567 82.0322C136.033 82.0322 135.553 82.0855 135.34 81.5528C135.073 80.8071 135.553 80.3277 136.14 80.1146C138.113 79.3688 140.139 78.7296 142.166 78.0371C145.259 76.9718 148.351 75.9064 151.444 74.8411C152.138 74.628 152.937 74.3617 153.311 75.1607C153.737 76.0662 152.991 76.4391 152.298 76.6522C147.285 78.41 142.272 80.1146 137.26 81.8192C136.993 81.979 136.726 81.979 136.567 82.0322Z" fill="#D3A613"/>
</g>
<defs>
<clipPath id="clip0_312_218">
<rect width="271" height="119" fill="white"/>
</clipPath>
</defs>
</svg>
