<?xml version="1.0" encoding="UTF-8"?>
<svg id="Calque_1" data-name="Calque 1" xmlns="http://www.w3.org/2000/svg" viewBox="0 0 273.82 206.12">
  <defs>
    <style>
      .cls-1 {
        fill: #1b1934;
      }

      .cls-2 {
        fill: #f1d469;
      }
    </style>
  </defs>
  <path class="cls-1" d="M268.24,55.38c-2.03-3.49-5.76-5.64-9.79-5.67l-21.07-.15,3.23-4.75c2.38-3.51,2.63-8.04.64-11.79-1.98-3.74-5.87-6.07-10.09-6.07,0,0-8.63.02-21.61.06l2.94-4.04c2.53-3.48,2.9-8.08.95-11.91-1.95-3.83-5.88-6.25-10.18-6.25l-139.26-.1s-34.17-.68-34.24-.68c-5.83,0-10.75,4.41-11.36,10.24l-.21,2c-.62,5.91,3.38,11.3,9.21,12.42l8.09,1.55-12.08,14.43c-2.85,3.4-3.47,8.14-1.61,12.16,1.87,4.02,5.89,6.6,10.32,6.61,0,0,11.22.04,22.29.07-1.75,3.15-1.93,6.99-.38,10.34,1.87,4.05,5.92,6.64,10.37,6.64,0,0,2.48,0,6.29,0l-42.07,75.44-23.5,39.81c-1.05,1.74.97,3.71,2.68,2.62l25.19-15.87h.01l20.92-13.18,118.1-21.99c3.35-.61,6.17-2.07,7.83-5.04l6.63-11.88,10.47-.15c22.37-.23,43.03-12.52,53.9-32.09l17.5-31.47c1.96-3.53,1.92-7.83-.12-11.32Z"/>
  <g>
    <path class="cls-2" d="M8.74,205.62c-2.92,0-5.65-1.61-7.13-4.19-1.49-2.6-1.47-5.69.05-8.29l25.22-41.32,37.81-67.79h-.19c-5.9,0-11.23-3.41-13.66-8.68-1.2-2.6-1.63-5.46-1.23-8.31l-17.48-.06c-5.77-.02-11.08-3.42-13.51-8.66-2.43-5.24-1.61-11.49,2.1-15.91l8.23-9.83-2.2-.42c-7.69-1.48-12.88-8.46-12.06-16.25l.21-2C15.69,6.26,22.08.5,29.76.5c.05,0,.12,0,34.28.68l139.22.1c5.66,0,10.76,3.14,13.32,8.18,2.28,4.49,2.18,9.65-.23,14l14.8-.04c5.54,0,10.6,3.04,13.21,7.94,2.48,4.66,2.31,10.22-.38,14.71l14.49.1c5.26.04,10.17,2.88,12.81,7.42,2.65,4.54,2.71,10.22.15,14.81l-17.5,31.47c-11.49,20.67-33.3,33.67-56.94,33.91l-8.43.12-23.39,42.05L10.35,205.46c-.54.1-1.08.15-1.61.15h0ZM29.06,156.18l-23.51,39.82c-.38.63-.19,1.16-.04,1.42.26.46.75.75,1.25.75.26,0,.52-.08.76-.23l25.31-15.95h.01l20.88-13.15,119.35-22.26c2.97-.76,5.05-2.25,6.33-4.54l4.33-7.74-8.56-5.48,11.52,1.09,10.25-.15c22.2-.22,42.68-12.42,53.47-31.83l17.5-31.47c1.87-3.36,1.83-7.5-.11-10.82-1.93-3.32-5.52-5.39-9.36-5.42l-20.97-.15-13.73.21,16.24-5.45.2-.3c2.28-3.36,2.52-7.68.61-11.27-1.9-3.58-5.6-5.8-9.65-5.8l-20.71.05-.24.02-14.13.21,16.25-5.45c2.19-3.29,2.45-7.49.66-11-1.87-3.68-5.6-5.97-9.73-5.98l-139.26-.1c-.35,0-33.99-.67-34.25-.68-5.6,0-10.27,4.21-10.85,9.79l-.21,2c-.6,5.69,3.19,10.8,8.81,11.87l8.93,1.71-12.63,15.09c-2.71,3.23-3.31,7.8-1.53,11.62,1.78,3.83,5.65,6.31,9.87,6.32l23.14.08-.41.75c-1.69,3.04-1.82,6.73-.37,9.88,1.78,3.85,5.67,6.34,9.92,6.34h7.15s-42.49,76.19-42.49,76.19Z"/>
    <path class="cls-1" d="M29.76,1.01s.11,0,34.27.68l139.23.1c5.46,0,10.4,3.03,12.87,7.91,2.33,4.59,2.06,9.98-.67,14.28l11.28-.03c2.82,0,4.41-.01,4.41-.01,5.36,0,10.25,2.94,12.76,7.67,2.52,4.75,2.21,10.46-.81,14.91l-.04.06,15.4.11c5.08.04,9.82,2.78,12.38,7.17,2.56,4.39,2.61,9.87.15,14.31l-17.49,31.47c-11.4,20.52-33.05,33.41-56.5,33.65l-8.73.12-23.42,42.1L10.26,204.97c-.52.1-1.02.15-1.52.15-5.77,0-9.75-6.41-6.64-11.72l25.22-41.32,38.23-68.56h-1.05s-.09,0-.09,0c-5.61,0-10.76-3.29-13.12-8.39-1.25-2.71-1.61-5.72-1.1-8.6l-18.07-.06c-5.58-.02-10.7-3.3-13.06-8.37-2.35-5.06-1.55-11.1,2.03-15.38l8.78-10.49-3.04-.58c-7.43-1.42-12.44-8.18-11.65-15.71l.21-2c.77-7.38,6.95-12.95,14.37-12.95M64.4,80.5s2.48,0,6.29,0l-42.07,75.44-23.5,39.81c-.84,1.4.28,2.93,1.65,2.93.34,0,.69-.1,1.04-.31l25.19-15.87h.01l20.92-13.18,119.25-22.24c2.84-.72,5.21-2.16,6.68-4.79l4.63-8.28-.08.13-7.2-4.61,9.45.89,10.31-.15c22.37-.23,43.03-12.52,53.9-32.09l17.5-31.47c1.96-3.53,1.92-7.83-.12-11.32-2.03-3.49-5.76-5.64-9.79-5.67l-20.97-.15-10.5.16,13.33-4.47.3-.44c2.38-3.51,2.63-8.04.64-11.79-1.98-3.74-5.87-6.07-10.09-6.07,0,0-8.34.02-20.95.05v.02s-10.89.16-10.89.16l13.33-4.47c2.37-3.44,2.69-7.91.79-11.65-1.95-3.83-5.88-6.25-10.18-6.25l-139.26-.1s-34.17-.68-34.24-.68c-5.83,0-10.75,4.41-11.36,10.24l-.21,2c-.62,5.91,3.38,11.3,9.21,12.42l8.09,1.55-12.08,14.43c-2.85,3.4-3.47,8.14-1.61,12.16,1.87,4.02,5.89,6.6,10.32,6.61,0,0,11.22.04,22.29.07-1.75,3.15-1.93,6.99-.38,10.34,1.87,4.05,5.92,6.64,10.37,6.64M29.76,0c-7.93,0-14.54,5.95-15.37,13.85l-.21,2c-.85,8.05,4.51,15.28,12.46,16.8l1.35.26-7.68,9.17c-3.83,4.57-4.69,11.03-2.17,16.45,2.52,5.42,8,8.93,13.97,8.95l16.92.05c-.28,2.75.18,5.5,1.34,8.02,2.44,5.28,7.68,8.75,13.46,8.97l-37.4,67.07L1.23,192.87c-1.62,2.77-1.64,6.06-.06,8.81,1.57,2.74,4.47,4.44,7.57,4.44.56,0,1.14-.05,1.71-.16l154.6-29.46.46-.09.23-.41,23.13-41.59,8.15-.12c23.81-.24,45.79-13.33,57.37-34.17l17.49-31.47c2.64-4.75,2.58-10.61-.16-15.31-2.74-4.69-7.81-7.63-13.25-7.67l-13.63-.1c2.37-4.5,2.39-9.89-.03-14.45-2.69-5.06-7.92-8.21-13.65-8.21h-.1s-4.31.01-4.31.01l-9.56.02c2.11-4.33,2.08-9.34-.15-13.72-2.65-5.21-7.92-8.45-13.77-8.46l-139.23-.1C29.87,0,29.81,0,29.76,0h0ZM64.4,79.49c-4.05,0-7.76-2.38-9.46-6.05-1.39-3-1.26-6.53.35-9.43l.83-1.49h-1.71s-22.29-.08-22.29-.08c-4.02-.01-7.72-2.38-9.41-6.03-1.69-3.65-1.12-8,1.46-11.09l12.08-14.43,1.1-1.31-1.68-.32-8.09-1.55c-5.36-1.03-8.97-5.9-8.4-11.33l.21-2c.56-5.32,5.01-9.34,10.36-9.34.31,0,33.88.67,34.22.68l139.28.1c3.94,0,7.5,2.19,9.28,5.7,1.68,3.3,1.47,7.24-.54,10.35l-13.01,4.36-6.15,2.06,6.48-.1,10.89-.16h.57s0-.02,0-.02l20.37-.05c3.86,0,7.39,2.12,9.2,5.53,1.82,3.42,1.59,7.54-.58,10.75l-.11.16-13.01,4.36-6.15,2.06,6.48-.1,10.5-.16,20.95.15c3.66.03,7.08,2.01,8.93,5.17,1.85,3.16,1.89,7.12.1,10.32l-17.5,31.47c-10.7,19.25-31.02,31.35-53.03,31.57l-10.26.15-9.4-.89-4.14-.39,3.5,2.24,6.41,4.11-4.09,7.33c-1.2,2.16-3.17,3.57-6.02,4.3l-119.22,22.24-.19.04-.16.1-20.68,13.02h0l-.26.16-25.19,15.87c-.17.11-.33.16-.5.16-.32,0-.64-.2-.81-.5-.11-.2-.2-.52.03-.91l23.51-39.81,42.09-75.46.84-1.5h-1.72s-6.15,0-6.15,0h-.15s0,0,0,0h0Z"/>
  </g>
  <g>
    <path class="cls-1" d="M65.92,174.72c.47-.09.62.03.61.52v.38c-.01.49-.17.67-.64.76l-1.49.28c-.47.09-.63.32-.63.81l-.07,9.64c0,.49-.3.86-.77.94l-.96.18c-.47.09-.74-.17-.74-.66l.07-9.64c0-.49-.19-.65-.65-.56l-1.49.28c-.47.09-.62-.03-.61-.52v-.38c.01-.49.17-.67.64-.76l6.73-1.27Z"/>
    <path class="cls-1" d="M69.9,185.88c0,.49-.31.91-.78.99l-.96.18c-.46.09-.72-.22-.71-.71l.07-11.07c0-.49.2-.89.67-.97l3.98-.75c1.29-.24,2.08.38,2.3,1.54.05.24.07.5.06.77l-.02,1.67c0,.98-.48,2.15-1.54,2.82-.14.09,0,.38,0,.42l1.7,4.21c.17.47-.06.86-.45.93l-.96.18c-.62.12-.84-.18-1.02-.65l-1.77-4.23c-.06-.14-.19-.19-.31-.16-.13.02-.24.13-.24.3l-.02,4.54ZM72.06,177.82l.02-1.34c0-.82-.42-1.19-1.19-1.05l-.28.05c-.47.09-.64.5-.65.99l-.03,2.16c0,.49.24.84.7.75.9-.17,1.42-.56,1.42-1.56Z"/>
    <path class="cls-1" d="M80.44,171.97c1.32-.25,2.16.16,2.37,1.29.04.2.06.42.05.67l-.05,7.95c-.01,1.63-.92,2.59-2.47,2.88l-2.12.4c-1.32.25-2.16-.16-2.37-1.29-.04-.2-.06-.42-.05-.67l.05-7.95c.01-1.63.92-2.59,2.47-2.88l2.12-.4ZM78.24,182.58c0,.49.2.88.66.79l.76-.14c.47-.09.7-.56.7-1.05l.05-7.63c0-.49-.21-.87-.68-.78l-.76.14c-.47.09-.68.55-.69,1.04l-.05,7.63Z"/>
    <path class="cls-1" d="M86.06,170.91c.46-.09.75.14.74.63l-.06,9.44c0,.49.2.88.66.79l.76-.14c.47-.09.71-.56.72-1.05l.06-9.44c0-.49.29-.82.76-.91l.98-.19c.47-.09.72.14.71.63l-.06,9.6c-.01,1.63-.93,2.57-2.47,2.87l-2.14.41c-1.32.25-2.15-.15-2.37-1.27-.04-.2-.06-.42-.05-.66l.06-9.6c0-.49.28-.82.74-.91l.96-.18Z"/>
    <path class="cls-1" d="M93.93,169.42c.47-.09.8.16.84.38l1.3,6.26c.05.19.1.45.21.43.11-.02.18-.31.22-.52l1.4-6.77c.05-.24.4-.61.86-.7l.96-.18c.36-.07.56.07.61.3.01.07.01.14,0,.23l-2.73,11.63c-.11.49-.4,1.09-.87,1.18l-.96.18c-.46.09-.73-.4-.84-.85l-2.57-10.62c-.09-.31.15-.66.61-.75l.96-.18Z"/>
    <path class="cls-1" d="M105.83,167.16c.47-.09.69,0,.69.49v.39c0,.49-.25.68-.71.77l-1.41.27c-.47.09-.63.33-.63.82l-.02,2.5c0,.49.22.68.69.59l.85-.16c.47-.09.6.02.59.51v.39c0,.49-.14.66-.6.75l-.85.16c-.47.09-.69.34-.69.83l-.03,2.49c0,.49.16.69.63.6l1.41-.27c.47-.09.71,0,.7.49v.41c0,.49-.25.67-.71.75l-3.69.7c-.47.09-.8-.22-.79-.71l.07-11.06c0-.49.36-.92.82-1l3.69-.7Z"/>
    <path class="cls-1" d="M118.58,164.75c.47-.09.62.03.61.52v.38c-.01.49-.17.67-.64.76l-1.49.28c-.47.09-.63.32-.63.81l-.07,9.64c0,.49-.3.86-.77.94l-.96.18c-.47.09-.74-.17-.73-.66l.07-9.64c0-.49-.19-.65-.65-.56l-1.49.28c-.47.09-.62-.03-.61-.52v-.38c.01-.49.17-.67.64-.76l6.73-1.27Z"/>
    <path class="cls-1" d="M120.77,165.02c.05-.24.25-.73.87-.85l.96-.18c.62-.12.8.31.84.53l2.57,10.95c.06.23-.15.66-.61.75l-.96.18c-.62.12-.79-.16-.84-.38l-.39-1.53c-.06-.22-.18-.34-.49-.28l-1.36.26c-.31.06-.44.23-.5.47l-.39,1.67c-.07.24-.24.58-.86.7l-.96.18c-.47.09-.66-.27-.6-.52l2.73-11.95ZM122.69,172.01l-.51-3.36c-.01-.06-.04-.11-.1-.1-.06.01-.1.07-.12.14l-.55,3.56c-.06.42.16.51.62.42.47-.09.7-.26.65-.66Z"/>
    <path class="cls-1" d="M133.39,173.85c0,.49-.36.92-.82,1l-.84.16c-.47.09-.79-.21-.79-.7l.07-11.07c0-.49.36-.92.82-1l3.83-.73c1.3-.25,2.09.28,2.3,1.42.04.22.06.46.06.73l-.02,1.99c-.01,1.63-1.18,2.83-2.42,3.07l-1.52.29c-.47.09-.64.25-.65.74l-.03,4.1ZM134.36,167.31c.77-.15,1.18-.7,1.19-1.51l.02-1.34c0-.82-.42-1.19-1.19-1.05l-.28.05c-.46.09-.64.5-.65.99l-.02,2.16c0,.49.19.84.66.76.03,0,.25-.05.28-.05Z"/>
    <path class="cls-1" d="M141.06,160.49c.46-.09.72.22.71.71l-.07,11.07c0,.49-.28.9-.74.99l-.96.18c-.46.09-.72-.22-.71-.71l.07-11.07c0-.49.28-.9.74-.99l.96-.18Z"/>
    <path class="cls-1" d="M147.83,159.21c.47-.09.69,0,.69.49v.39c0,.49-.25.68-.71.77l-1.41.27c-.47.09-.63.33-.63.82l-.02,2.5c0,.49.22.68.69.59l.85-.16c.47-.09.6.02.59.51v.39c0,.49-.14.66-.6.75l-.85.16c-.47.09-.69.34-.69.83l-.03,2.49c0,.49.16.69.63.6l1.41-.27c.47-.09.71,0,.7.49v.41c0,.49-.25.67-.71.75l-3.69.7c-.47.09-.79-.21-.79-.7l.07-11.07c0-.49.36-.92.82-1l3.69-.7ZM145.5,156.39c.62-.12.94.21,1.08.45l.64,1.09c.15.27.06.67-.4.76l-.96.18c-.62.12-.94-.21-1.08-.45l-.64-1.09c-.15-.27-.06-.67.4-.76l.96-.18Z"/>
    <path class="cls-1" d="M154.22,158c1.32-.25,2.15.15,2.37,1.27.04.2.06.42.06.66v1.93c0,.49-.21.8-.67.89l-1.13.21c-.46.09-.65-.15-.65-.64v-1.76c0-.49-.23-.87-.69-.78l-.76.14c-.46.09-.68.55-.69,1.04l-.05,7.64c0,.49.2.88.66.79l.76-.14c.47-.09.71-.56.72-1.05v-1.76c0-.49.22-.81.69-.9l1.13-.21c.47-.09.64.16.64.65v1.93c-.02,1.63-.93,2.57-2.48,2.87l-2.14.41c-1.32.25-2.15-.15-2.37-1.27-.04-.2-.06-.42-.05-.66l.05-7.97c.01-1.63.93-2.57,2.48-2.87l2.14-.4Z"/>
    <path class="cls-1" d="M162.69,156.4c.47-.09.69,0,.69.49v.39c0,.49-.25.68-.71.77l-1.41.27c-.47.09-.63.33-.63.82l-.02,2.5c0,.49.22.68.69.59l.85-.16c.47-.09.6.02.59.51v.39c-.01.49-.14.66-.6.75l-.85.16c-.46.09-.69.34-.69.83l-.03,2.49c0,.49.16.69.63.6l1.41-.27c.47-.09.71,0,.7.49v.41c0,.49-.25.67-.71.75l-3.69.7c-.46.09-.8-.22-.79-.71l.07-11.06c0-.49.36-.92.82-1l3.69-.7Z"/>
  </g>
  <g>
    <path class="cls-2" d="M76.01,50.89l9.37-11.01-27.48-5.27s33.25.63,33.41.63l95.62-.25,14.97-17.99-137.39-.1-34.14-.68,28.86,5.53-24.29,29.01,41.07.13Z"/>
    <polygon class="cls-2" points="143.21 56.36 178.02 57.05 178.09 57.05 214.86 57.33 229.88 39.14 91.32 39.49 67.22 67.79 132.65 67.75 85.1 151.01 124.56 143.81 171.6 61.62 143.21 56.36"/>
    <path class="cls-2" d="M176.69,61.31l-46.64,81.5,39.81-7.27,9.91-17.73,17.7-.25c17.96-.18,34.44-9.99,43.16-25.7l16.67-29.98-80.61-.56ZM221.45,82.17c-4.42,7.79-12.69,12.61-21.66,12.62l-19.96.03,6.01-11.47-13.15-4.11,19.51.55,30.72-.2-1.47,2.58Z"/>
    <path class="cls-2" d="M90.31,72.05l-53.75,93.23c-1.07,1.86,1.24,3.81,2.89,2.45l13.15-10.8,27-4.92,45.69-79.98-34.99.02Z"/>
  </g>
</svg>